<svg version="1.1" viewBox="0.0 0.0 960.0 960.0" fill="none" stroke="none" stroke-linecap="square" stroke-miterlimit="10" xmlns:xlink="http://www.w3.org/1999/xlink" xmlns="http://www.w3.org/2000/svg"><clipPath id="p.0"><path d="m0 0l960.0 0l0 960.0l-960.0 0l0 -960.0z" clip-rule="nonzero"/></clipPath><g clip-path="url(#p.0)"><path fill="#000000" fill-opacity="0.0" d="m0 0l960.0 0l0 960.0l-960.0 0z" fill-rule="evenodd"/><path fill="#000000" fill-opacity="0.0" d="m77.03674 62.937008l776.0315 0l0 776.0315l-776.0315 0z" fill-rule="evenodd"/><path stroke="#000000" stroke-width="12.0" stroke-linejoin="round" stroke-linecap="butt" d="m77.03674 62.937008l776.0315 0l0 776.0315l-776.0315 0z" fill-rule="evenodd"/><path fill="#000000" fill-opacity="0.0" d="m115.35958 104.91076l776.0315 0l0 776.0315l-776.0315 0z" fill-rule="evenodd"/><path stroke="#000000" stroke-width="12.0" stroke-linejoin="round" stroke-linecap="butt" d="m115.35958 104.91076l776.0315 0l0 776.0315l-776.0315 0z" fill-rule="evenodd"/><path fill="#000000" fill-opacity="0.0" d="m206.22047 132.77428l547.5591 0l0 659.1811l-547.5591 0z" fill-rule="evenodd"/><path fill="#000000" d="m569.0545 497.06793l18.75 -35.40625l0 192.70312l-18.75 0l0 -157.29688zm37.5 -71.875l18.75 -35.40625l0 264.57812l-18.75 0l0 -229.17188zm37.5 -70.828125l18.75 -35.671875l0 335.67188l-18.75 0l0 -300.0zm-125.78125 133.85938l-10.6719055 -19.53125l129.1719 -245.57814l21.09375 0l-139.59375 265.10938zm-21.609406 -40.890625l-10.9375 -19.796875l108.328156 -204.42189l21.359375 0l-118.75003 224.21877zm-125.515625 16.40625l18.75 35.421875l0 155.20312l-18.75 0l0 -190.625zm-37.5 -71.359375l18.75 35.421875l0 226.5625l-18.75 0l0 -261.98438zm-37.5 -71.34375l18.75 35.671875l0 297.65625l-18.75 0l0 -333.32812zm151.5625 220.82812l-21.09375 0l-149.21875 -283.0625l0 395.5625l-18.75 0l0 -431.25l21.09375 0l167.96875 318.75zm42.453125 0l-21.359375 0l-167.70312 -318.75l21.34375 0l167.71875 318.75zm191.39066 -283.0625l-149.21875 283.0625l-21.34378 0l-167.45312 -318.75l21.09375 0l157.2969 298.95312l157.03125 -298.95312l21.34375 0l0 431.25l-18.75 0l0 -395.5625z" fill-rule="nonzero"/></g></svg>